<?xml version="1.0" encoding="UTF-8"?><svg id="Layer_1" xmlns="http://www.w3.org/2000/svg" viewBox="0 0 488.37 437.66"><g id="v9gKci.tif"><path d="M347.71,211.52c5.41-13.69,10.45-27.55,16.34-41.03,7.32-16.77,14.77-33.52,23.19-49.75,11.28-21.76,23.61-42.97,35.32-64.5,7.36-13.52,14.89-27.11,26.43-37.38,8.2-7.3,18.16-12.63,27.33-18.84l1.9,1.16c0,3.9.54,7.89-.09,11.68-3.77,22.87-12.55,44.13-22.89,64.6-12.15,24.04-26.1,47.16-38.29,71.19-9.49,18.7-18.02,37.93-25.98,57.33-9.77,23.83-18.44,48.11-27.67,72.17-6.38,16.64-12.82,33.25-19.39,49.82-2.67,6.73-5.39,13.48-8.73,19.88-2.5,4.8-6.01,4.83-9.2.12-5.3-7.83-10.83-15.52-15.91-23.49-1.32-2.07-1.86-4.96-1.87-7.48-.09-31.88-.15-63.76.14-95.63.06-6.59,1.71-13.15,2.44-19.75.21-1.85-.22-3.77-.46-7.18-31.16,54.48-61.47,107.5-91.91,160.72-9.22-7.09-9.61-7.53-5.54-17.01,15.06-35.07,30.06-70.17,45.69-104.99,6.96-15.49,15.63-30.21,23.07-45.5,10.54-21.64,20.75-43.44,30.91-65.26,1.94-4.18,3.17-8.73,4.4-13.2,2.39-8.63,9.87-10.77,16.87-13.55,1.87-.74,3.84-1.69,5.77-1.7,3.09,0,6.61-.11,9.17,1.28,4.86,2.65,9.25,6.23,7.91,13.01-.52,2.63-.81,5.31-1.1,7.97-1.65,14.84-3.32,29.68-4.87,44.53-1.03,9.8-1.79,19.64-2.83,29.44-.58,5.51-1.55,10.97-2.2,16.47-.17,1.45.18,2.96.3,4.44.58.14,1.17.29,1.75.43Z"/><path d="M88.64,188.18c-28.15,50.48-56.3,100.96-84.54,151.39-.37.65-1.97.61-3.76,1.11-1.52-8.42,2.49-15.11,5.38-21.65,16.98-38.56,34.23-77.01,51.65-115.37,12.48-27.47,25.01-54.92,38.3-82,4.22-8.61,10.51-16.13,9.39-26.54-.08-.72.71-1.58,1.2-2.31,3.28-4.84,18.73-10.1,24.21-8.27,8.27,2.77,12.07,12.43,8.6,21.72-.7,1.86-1.46,3.78-1.69,5.72-1.8,15.46-3.38,30.94-5.24,46.39-1.47,12.17-3.16,24.31-4.93,36.44-.37,2.53-1.52,4.94-.92,7.96,7.78-13.26,15.56-26.53,23.35-39.79,8.7-14.81,17.52-29.56,26.09-44.45,5.84-10.14,11.33-20.49,17.02-30.73,5.15-9.27,10.27-18.56,15.56-27.75,5.61-9.75,10.99-19.67,17.26-28.99,6.09-9.04,12.75-17.81,20.02-25.92,4.49-5,19.9-5.9,24.98-2.81,4.39,2.67,6.73,10.64,4.28,16.79-4.79,12.06-9.28,24.31-15.19,35.82-4.43,8.63-11.3,15.97-16.36,24.32-8.91,14.69-17.3,29.7-25.87,44.59-6.27,10.89-12.59,21.76-18.68,32.75-9.17,16.56-18.2,33.2-27.21,49.85-12.57,23.22-25.43,46.29-37.46,69.79-7.89,15.42-14.5,31.49-21.72,47.24-.73,1.59-1.67,3.09-2.62,4.56-3.16,4.88-5.61,4.23-9.8.23-8.08-7.71-12.36-17.39-16.65-27.19-.77-1.76-.7-3.96-.7-5.95-.06-17.18-.55-34.38.12-51.54.41-10.41,2.72-20.73,4.06-31.11,1.05-8.08,1.92-16.17,2.87-24.26-.33-.02-.66-.04-.99-.06Z"/><path d="M476.47,336.61c-4.76-6.18-9.28-11.21-12.86-16.84-9.35-14.7-13.6-31.04-15.11-48.32-1.22-13.91-3.09-27.77-4.92-41.62-.63-4.76-2.03-9.41-3.41-15.56-4.6,9.21-8.66,17.33-12.71,25.45-8.27,16.59-16.72,33.1-24.76,49.81-9.3,19.32-18.07,38.89-27.39,58.19-7.25,15.02-14.96,29.83-22.55,44.69-6.62,12.96-13.41,25.83-20.05,38.77-3.45,6.72-7.74,8.45-10.76,4.06-.76-1.1-1.28-3.03-.85-4.18,7.01-18.52,14.42-36.88,21.26-55.46,5.68-15.46,10.26-31.33,16.17-46.69,9.95-25.87,20.71-51.43,30.84-77.24,5.87-14.96,10.84-30.27,16.78-45.2,9.09-22.86,18.23-45.73,28.32-68.15,2.82-6.26,6.95-11.58,6.98-19.01.02-5.29,4.81-7.67,9.09-9.56,4.62-2.04,9.43-3.65,14.19-5.36,5.68-2.04,15.54,4.25,16.1,10.32.9,9.78,2.66,19.6,2.27,29.34-.56,14.02-3.5,27.96-3.97,41.98-.47,13.84.88,27.75,1.42,41.63.09,2.25-.02,4.53.27,6.76,1.58,11.86,3.51,23.68,4.84,35.56,1.25,11.1,3.61,22.47,2.33,33.35-1.26,10.75-3.4,22.14-11.53,33.29Z"/><path d="M231.97,266.73v-74.66c-6.06,11.47-11.47,21.93-17.09,32.28-4.42,8.14-8.99,16.2-13.67,24.19-5.04,8.61-10.37,17.04-15.41,25.65-5.99,10.23-11.9,20.5-17.68,30.85-6.55,11.74-12.89,23.59-19.39,35.36-6.74,12.21-13.4,24.46-20.39,36.53-6.65,11.49-13.68,22.76-20.51,34.15-1.5,2.5-2.7,5.2-4.31,7.62-3.72,5.58-3.78,5.54-10.46,7.42-3.05-7.71,2.28-13.61,4.87-19.74,12.48-29.54,25.59-58.82,38.39-88.23,12.23-28.09,23.92-56.42,36.66-84.27,10.56-23.1,22.33-45.65,33.49-68.48,5.62-11.5,10.85-23.19,16.63-34.6,5.07-10.02,10.6-19.8,16.04-29.63,3.28-5.93,9.7-7.09,15.29-7.9,3.33-.48,6.19-3.44,10.92-.97,7.89,4.12,10.74,8.94,10.14,17.81-1.44,21.06-1.41,42.22-2.92,63.27-.99,13.78-6.33,26.3-12.95,38.62-8.36,15.58-14.71,32.24-22.14,48.33-1.02,2.21-3.28,3.86-5.51,6.4Z"/></g></svg>