<svg width="220" height="19" viewBox="0 0 220 19" fill="none" xmlns="http://www.w3.org/2000/svg">
<g clip-path="url(#clip0_6328_22741)">
<path d="M18.2178 18.1H5.60781C4.83781 18.1 4.10781 17.95 3.43781 17.66C2.76781 17.37 2.16781 16.96 1.65781 16.45C1.14781 15.94 0.747813 15.34 0.447812 14.67C0.147812 14 0.0078125 13.27 0.0078125 12.5V5.61C0.0078125 4.84 0.157813 4.11 0.447812 3.44C0.737813 2.77 1.14781 2.17 1.65781 1.65C2.16781 1.13 2.76781 0.74 3.43781 0.44C4.10781 0.14 4.83781 0 5.60781 0H18.2278C18.9978 0 19.7278 0.15 20.3978 0.44C21.0678 0.73 21.6678 1.14 22.1778 1.65C22.6878 2.16 23.0878 2.76 23.3878 3.44C23.6878 4.12 23.8278 4.84 23.8278 5.61V12.5C23.8278 13.27 23.6778 14 23.3878 14.67C23.0978 15.34 22.6878 15.94 22.1778 16.45C21.6678 16.96 21.0678 17.36 20.3978 17.66C19.7278 17.96 18.9978 18.1 18.2278 18.1H18.2178ZM19.9278 11.06V7.06C19.9278 6.62 19.8478 6.22 19.6978 5.84C19.5478 5.46 19.3378 5.13 19.0578 4.83C18.7778 4.54 18.4578 4.31 18.0778 4.14C17.6978 3.97 17.2878 3.89 16.8378 3.89H7.08781C6.63781 3.89 6.21781 3.97 5.82781 4.12C5.43781 4.27 5.10781 4.49 4.80781 4.77C4.51781 5.06 4.28781 5.39 4.12781 5.77C3.96781 6.16 3.88781 6.57 3.88781 7.03V11.08C3.88781 11.5 3.96781 11.9 4.11781 12.27C4.26781 12.65 4.47781 12.98 4.75781 13.27C5.03781 13.56 5.36781 13.79 5.74781 13.95C6.12781 14.11 6.55781 14.19 7.02781 14.19H16.7578C17.2278 14.19 17.6578 14.11 18.0378 13.94C18.4278 13.77 18.7578 13.55 19.0478 13.26C19.3378 12.97 19.5478 12.64 19.6978 12.26C19.8478 11.87 19.9278 11.47 19.9278 11.05V11.06Z" fill="white"/>
<path d="M46.8016 14.45H32.5016V18.09H28.6016V0H46.8016C47.5916 0 48.3216 0.15 49.0016 0.44C49.6816 0.73 50.2716 1.14 50.7816 1.65C51.2916 2.16 51.6916 2.76 51.9916 3.44C52.2916 4.12 52.4316 4.85 52.4316 5.64V8.83C52.4316 9.6 52.2816 10.33 51.9916 11.02C51.7016 11.71 51.2916 12.31 50.7816 12.82C50.2716 13.33 49.6716 13.73 49.0016 14.03C48.3316 14.33 47.5916 14.47 46.8016 14.47V14.45ZM48.5416 7.69V6.81C48.5416 6.37 48.4816 5.98 48.3616 5.63C48.2416 5.28 48.0616 4.97 47.8116 4.71C47.5616 4.45 47.2316 4.25 46.8316 4.11C46.4316 3.97 45.9316 3.9 45.3516 3.9H32.5116V10.56H45.3516C45.9216 10.56 46.4116 10.49 46.8116 10.36C47.2116 10.23 47.5416 10.04 47.8016 9.79C48.0616 9.55 48.2516 9.25 48.3716 8.89C48.4916 8.53 48.5516 8.13 48.5516 7.7L48.5416 7.69Z" fill="white"/>
<path d="M57.1094 0H79.8594V3.9H61.0094V7.12H79.2594V10.99H61.0094V14.21H79.8594V18.11H57.1094V0Z" fill="white"/>
<path d="M104.105 13.52V0H108.005V18.1H103.105L88.525 4.58V18.1H84.625V0H89.555L104.105 13.52Z" fill="white"/>
<path d="M132.231 14.45H117.931V18.09H114.031V0H132.231C133.021 0 133.751 0.15 134.431 0.44C135.111 0.73 135.701 1.14 136.211 1.65C136.721 2.16 137.121 2.76 137.421 3.44C137.721 4.12 137.861 4.85 137.861 5.64V8.83C137.861 9.6 137.711 10.33 137.421 11.02C137.131 11.71 136.721 12.31 136.211 12.82C135.701 13.33 135.101 13.73 134.431 14.03C133.761 14.33 133.021 14.47 132.231 14.47V14.45ZM133.971 7.69V6.81C133.971 6.37 133.911 5.98 133.791 5.63C133.671 5.28 133.491 4.97 133.241 4.71C132.991 4.45 132.661 4.25 132.261 4.11C131.861 3.97 131.361 3.9 130.781 3.9H117.941V10.56H130.781C131.351 10.56 131.841 10.49 132.241 10.36C132.641 10.23 132.971 10.04 133.231 9.79C133.491 9.55 133.681 9.25 133.801 8.89C133.921 8.53 133.981 8.13 133.981 7.7L133.971 7.69Z" fill="white"/>
<path d="M165.791 18.1H161.291L159.001 14.58H144.971L142.681 18.1H138.211L149.481 0H154.511L165.801 18.1H165.791ZM151.741 3.9L147.271 10.69H156.771L152.251 3.9H151.751H151.741Z" fill="white"/>
<path d="M191.927 5.63023C191.507 5.26023 191.027 4.96023 190.497 4.74023C189.967 4.52023 189.387 4.34023 188.767 4.21023C188.147 4.08023 187.487 4.00023 186.797 3.96023C186.097 3.92023 185.397 3.90023 184.677 3.90023H174.397C173.927 3.90023 173.497 3.98023 173.117 4.14023C172.737 4.30023 172.397 4.53023 172.117 4.82023C171.827 5.11023 171.607 5.45023 171.447 5.83023C171.287 6.21023 171.207 6.61023 171.207 7.05023V11.1002C171.207 11.5402 171.287 11.9402 171.447 12.3102C171.607 12.6802 171.827 13.0102 172.117 13.2902C172.407 13.5802 172.737 13.8002 173.117 13.9702C173.507 14.1402 173.917 14.2202 174.377 14.2202H185.107C185.457 14.2202 185.777 14.1502 186.077 14.0102C186.367 13.8702 186.617 13.6802 186.827 13.4602C187.037 13.2302 187.207 12.9802 187.357 12.7102C187.497 12.4302 187.587 12.1502 187.617 11.8702C187.647 11.5002 187.617 11.2502 187.517 11.1202C187.417 10.9902 187.257 10.9202 187.037 10.9202H180.177V7.02023H187.537C188.277 7.02023 188.907 7.10023 189.437 7.27023C189.967 7.44023 190.397 7.66023 190.747 7.95023C191.087 8.24023 191.337 8.58023 191.497 8.99023C191.657 9.40023 191.737 9.85023 191.737 10.3302L191.937 18.1702L188.117 18.1202L188.397 13.2902H187.917C187.917 13.9902 187.747 14.6402 187.417 15.2402C187.077 15.8302 186.667 16.3502 186.157 16.7702C185.657 17.2002 185.107 17.5302 184.527 17.7602C183.937 17.9902 183.387 18.1102 182.867 18.1102H172.937C172.167 18.1102 171.437 17.9602 170.747 17.6702C170.057 17.3802 169.457 16.9702 168.947 16.4602C168.437 15.9502 168.037 15.3502 167.737 14.6602C167.437 13.9702 167.297 13.2402 167.297 12.4702V5.63023C167.297 4.84023 167.447 4.11023 167.737 3.43023C168.027 2.75023 168.437 2.16023 168.947 1.64023C169.457 1.12023 170.057 0.730234 170.747 0.430234C171.437 0.140234 172.167 -0.00976562 172.937 -0.00976562H186.087C187.177 -0.00976562 188.237 0.120234 189.267 0.380234C190.297 0.640234 191.187 1.06023 191.947 1.65023V5.62023L191.927 5.63023Z" fill="white"/>
<path d="M196.961 0H219.711V3.9H200.861V7.12H219.111V10.99H200.861V14.21H219.711V18.11H196.961V0Z" fill="white"/>
</g>
<defs>
<clipPath id="clip0_6328_22741">
<rect width="219.7" height="18.15" fill="white"/>
</clipPath>
</defs>
</svg>
