<svg width="146" height="19" viewBox="0 0 146 19" fill="none" xmlns="http://www.w3.org/2000/svg">
<g clip-path="url(#clip0_6328_22776)">
<path d="M18.2178 18.1195H5.60781C4.83781 18.1195 4.10781 17.9695 3.43781 17.6795C2.76781 17.3895 2.16781 16.9795 1.65781 16.4695C1.14781 15.9595 0.747813 15.3595 0.447812 14.6895C0.147812 14.0195 0.0078125 13.2895 0.0078125 12.5195V5.62953C0.0078125 4.85953 0.157813 4.12953 0.447812 3.45953C0.737813 2.78953 1.14781 2.18953 1.65781 1.66953C2.16781 1.14953 2.76781 0.759531 3.43781 0.459531C4.10781 0.159531 4.82781 0.0195312 5.60781 0.0195312H18.2278C18.9978 0.0195312 19.7278 0.169531 20.3978 0.459531C21.0678 0.749531 21.6678 1.15953 22.1778 1.66953C22.6878 2.17953 23.0878 2.77953 23.3878 3.45953C23.6878 4.13953 23.8278 4.85953 23.8278 5.62953V12.5195C23.8278 13.2895 23.6778 14.0195 23.3878 14.6895C23.0978 15.3595 22.6878 15.9595 22.1778 16.4695C21.6678 16.9795 21.0678 17.3795 20.3978 17.6795C19.7278 17.9795 18.9978 18.1195 18.2278 18.1195H18.2178ZM19.9278 11.0795V7.07953C19.9278 6.63953 19.8478 6.23953 19.6978 5.85953C19.5478 5.47953 19.3378 5.14953 19.0578 4.84953C18.7778 4.55953 18.4578 4.32953 18.0778 4.15953C17.6978 3.98953 17.2878 3.90953 16.8378 3.90953H7.08781C6.63781 3.90953 6.21781 3.98953 5.82781 4.13953C5.43781 4.28953 5.10781 4.50953 4.80781 4.78953C4.51781 5.07953 4.28781 5.40953 4.12781 5.78953C3.96781 6.17953 3.88781 6.58953 3.88781 7.04953V11.0995C3.88781 11.5195 3.96781 11.9195 4.11781 12.2895C4.26781 12.6695 4.47781 12.9995 4.75781 13.2895C5.03781 13.5795 5.36781 13.8095 5.74781 13.9695C6.12781 14.1295 6.55781 14.2095 7.02781 14.2095H16.7578C17.2278 14.2095 17.6578 14.1295 18.0378 13.9595C18.4278 13.7895 18.7578 13.5695 19.0478 13.2795C19.3378 12.9895 19.5478 12.6595 19.6978 12.2795C19.8478 11.8895 19.9278 11.4895 19.9278 11.0695V11.0795Z" fill="white"/>
<path d="M46.8016 14.4795H32.5016V18.1195H28.6016V0.0195312H46.8016C47.5916 0.0195312 48.3216 0.169531 49.0016 0.459531C49.6816 0.749531 50.2716 1.15953 50.7816 1.66953C51.2916 2.17953 51.6916 2.77953 51.9916 3.45953C52.2916 4.13953 52.4316 4.86953 52.4316 5.65953V8.84953C52.4316 9.61953 52.2816 10.3495 51.9916 11.0395C51.7016 11.7295 51.2916 12.3295 50.7816 12.8395C50.2716 13.3495 49.6716 13.7495 49.0016 14.0495C48.3316 14.3495 47.5916 14.4895 46.8016 14.4895V14.4795ZM48.5416 7.71953V6.83953C48.5416 6.39953 48.4816 6.00953 48.3616 5.65953C48.2416 5.30953 48.0616 4.99953 47.8116 4.73953C47.5616 4.47953 47.2316 4.27953 46.8316 4.13953C46.4316 3.99953 45.9316 3.92953 45.3516 3.92953H32.5116V10.5895H45.3516C45.9216 10.5895 46.4116 10.5195 46.8116 10.3895C47.2116 10.2595 47.5416 10.0695 47.8016 9.81953C48.0616 9.57953 48.2516 9.27953 48.3716 8.91953C48.4916 8.55953 48.5516 8.15953 48.5516 7.72953L48.5416 7.71953Z" fill="white"/>
<path d="M56.3984 18.1204V14.6504H61.0184V18.1204H56.3984Z" fill="white"/>
<path d="M71.43 18.12H66L74.95 9.07L66 0.02L71.43 0L77.79 6.41H80.66L86.99 0L92.45 0.02L83.5 9.07L92.45 18.12H86.99L80.58 11.69H77.87L71.44 18.12H71.43Z" fill="white"/>
<path d="M107.303 8.16953L115.123 0.0195312H120.323L109.033 12.0895H108.933V18.1195H105.033V12.0895H104.913L93.4531 0.0195312H98.6831L106.623 8.15953H107.303V8.16953Z" fill="white"/>
<path d="M121.578 0.0195312H145.788V3.86953L128.968 14.2295H145.788V18.1295H121.578V14.2795L138.368 3.91953H121.578V0.0195312Z" fill="white"/>
</g>
<defs>
<clipPath id="clip0_6328_22776">
<rect width="145.78" height="18.12" fill="white"/>
</clipPath>
</defs>
</svg>
