<svg width="390" height="89" viewBox="0 0 390 89" fill="none" xmlns="http://www.w3.org/2000/svg">
<g clip-path="url(#clip0_6328_22707)">
<path d="M187.65 37.1293H175.03C174.26 37.1293 173.53 36.9793 172.86 36.6893C172.19 36.3993 171.59 35.9893 171.08 35.4793C170.57 34.9693 170.17 34.3693 169.87 33.6993C169.57 33.0293 169.43 32.2993 169.43 31.5293V24.6393C169.43 23.8693 169.58 23.1393 169.87 22.4693C170.16 21.7993 170.57 21.1993 171.08 20.6793C171.59 20.1593 172.19 19.7693 172.86 19.4693C173.53 19.1693 174.26 19.0293 175.03 19.0293H187.65C188.42 19.0293 189.15 19.1793 189.82 19.4693C190.49 19.7593 191.09 20.1693 191.6 20.6793C192.11 21.1893 192.51 21.7893 192.81 22.4693C193.11 23.1493 193.25 23.8693 193.25 24.6393V31.5293C193.25 32.2993 193.1 33.0293 192.81 33.6993C192.52 34.3693 192.11 34.9693 191.6 35.4793C191.09 35.9893 190.49 36.3893 189.82 36.6893C189.15 36.9893 188.42 37.1293 187.65 37.1293ZM189.35 30.0893V26.0893C189.35 25.6493 189.27 25.2493 189.12 24.8693C188.97 24.4893 188.76 24.1593 188.48 23.8593C188.2 23.5693 187.88 23.3393 187.5 23.1693C187.12 22.9993 186.71 22.9193 186.26 22.9193H176.51C176.06 22.9193 175.64 22.9993 175.25 23.1493C174.86 23.2993 174.53 23.5193 174.23 23.7993C173.94 24.0893 173.71 24.4193 173.55 24.7993C173.39 25.1893 173.31 25.5993 173.31 26.0593V30.1093C173.31 30.5293 173.39 30.9293 173.54 31.2993C173.69 31.6793 173.9 32.0093 174.18 32.2993C174.46 32.5893 174.79 32.8193 175.17 32.9793C175.55 33.1393 175.98 33.2193 176.45 33.2193H186.18C186.65 33.2193 187.08 33.1393 187.46 32.9693C187.85 32.7993 188.18 32.5793 188.47 32.2893C188.76 31.9993 188.97 31.6693 189.12 31.2893C189.27 30.8993 189.35 30.4993 189.35 30.0793V30.0893Z" fill="white"/>
<path d="M216.223 33.4795H201.923V37.1195H198.023V19.0195H216.223C217.013 19.0195 217.743 19.1695 218.423 19.4595C219.103 19.7495 219.693 20.1595 220.203 20.6695C220.713 21.1795 221.113 21.7795 221.413 22.4595C221.713 23.1395 221.853 23.8695 221.853 24.6595V27.8495C221.853 28.6195 221.703 29.3495 221.413 30.0395C221.123 30.7295 220.713 31.3295 220.203 31.8395C219.693 32.3495 219.093 32.7495 218.423 33.0495C217.753 33.3495 217.013 33.4895 216.223 33.4895V33.4795ZM217.963 26.7195V25.8395C217.963 25.3995 217.903 25.0095 217.783 24.6595C217.663 24.3095 217.483 23.9995 217.233 23.7395C216.983 23.4795 216.653 23.2795 216.253 23.1395C215.853 22.9995 215.353 22.9295 214.773 22.9295H201.933V29.5895H214.773C215.343 29.5895 215.833 29.5195 216.233 29.3895C216.633 29.2595 216.963 29.0695 217.223 28.8195C217.483 28.5795 217.673 28.2795 217.793 27.9195C217.913 27.5595 217.973 27.1595 217.973 26.7295L217.963 26.7195Z" fill="white"/>
<path d="M226.531 19.0293H249.281V22.9293H230.431V26.1493H248.681V30.0193H230.431V33.2393H249.281V37.1393H226.531V19.0393V19.0293Z" fill="white"/>
<path d="M273.527 32.5591V19.0391H277.427V37.1391H272.527L257.947 23.6191V37.1391H254.047V19.0391H258.977L273.527 32.5591Z" fill="white"/>
<path d="M301.661 33.4795H287.361V37.1195H283.461V19.0195H301.661C302.451 19.0195 303.181 19.1695 303.861 19.4595C304.541 19.7495 305.131 20.1595 305.641 20.6695C306.151 21.1795 306.551 21.7795 306.851 22.4595C307.151 23.1395 307.291 23.8695 307.291 24.6595V27.8495C307.291 28.6195 307.141 29.3495 306.851 30.0395C306.561 30.7295 306.151 31.3295 305.641 31.8395C305.131 32.3495 304.531 32.7495 303.861 33.0495C303.191 33.3495 302.451 33.4895 301.661 33.4895V33.4795ZM303.391 26.7195V25.8395C303.391 25.3995 303.331 25.0095 303.211 24.6595C303.091 24.3095 302.911 23.9995 302.661 23.7395C302.411 23.4795 302.081 23.2795 301.681 23.1395C301.281 22.9995 300.781 22.9295 300.201 22.9295H287.361V29.5895H300.201C300.771 29.5895 301.261 29.5195 301.661 29.3895C302.061 29.2595 302.391 29.0695 302.651 28.8195C302.911 28.5795 303.101 28.2795 303.221 27.9195C303.341 27.5595 303.401 27.1595 303.401 26.7295L303.391 26.7195Z" fill="white"/>
<path d="M335.213 37.1293H330.713L328.423 33.6093H314.393L312.103 37.1293H307.633L318.893 19.0293H323.923L335.213 37.1293ZM321.163 22.9293L316.693 29.7193H326.193L321.673 22.9293H321.173H321.163Z" fill="white"/>
<path d="M361.45 24.6595C361.03 24.2895 360.55 23.9895 360.02 23.7695C359.49 23.5495 358.91 23.3695 358.29 23.2395C357.67 23.1095 357.01 23.0295 356.32 22.9895C355.62 22.9495 354.92 22.9295 354.2 22.9295H343.92C343.45 22.9295 343.02 23.0095 342.64 23.1695C342.26 23.3295 341.92 23.5595 341.64 23.8495C341.35 24.1395 341.13 24.4795 340.97 24.8595C340.81 25.2395 340.73 25.6395 340.73 26.0795V30.1295C340.73 30.5695 340.81 30.9695 340.97 31.3395C341.13 31.7095 341.35 32.0395 341.64 32.3195C341.93 32.6095 342.26 32.8295 342.64 32.9995C343.03 33.1695 343.44 33.2495 343.9 33.2495H354.63C354.98 33.2495 355.3 33.1795 355.6 33.0395C355.89 32.8995 356.14 32.7095 356.35 32.4895C356.56 32.2595 356.73 32.0095 356.88 31.7395C357.02 31.4595 357.11 31.1795 357.14 30.8995C357.17 30.5295 357.14 30.2795 357.04 30.1495C356.94 30.0195 356.78 29.9495 356.56 29.9495H349.7V26.0495H357.06C357.8 26.0495 358.43 26.1295 358.96 26.2995C359.49 26.4695 359.92 26.6895 360.27 26.9795C360.61 27.2695 360.86 27.6095 361.02 28.0195C361.18 28.4295 361.26 28.8795 361.26 29.3595L361.46 37.1995L357.64 37.1495L357.92 32.3195H357.44C357.44 33.0195 357.27 33.6695 356.94 34.2695C356.6 34.8595 356.19 35.3795 355.68 35.7995C355.18 36.2295 354.63 36.5595 354.05 36.7895C353.46 37.0195 352.91 37.1395 352.39 37.1395H342.46C341.69 37.1395 340.96 36.9895 340.27 36.6995C339.58 36.4095 338.98 35.9995 338.47 35.4895C337.96 34.9795 337.56 34.3795 337.26 33.6895C336.96 32.9995 336.82 32.2695 336.82 31.4995V24.6595C336.82 23.8695 336.97 23.1395 337.26 22.4595C337.55 21.7795 337.96 21.1895 338.47 20.6695C338.98 20.1495 339.58 19.7595 340.27 19.4595C340.96 19.1695 341.69 19.0195 342.46 19.0195H355.61C356.7 19.0195 357.76 19.1495 358.79 19.4095C359.82 19.6695 360.71 20.0895 361.47 20.6795V24.6495L361.45 24.6595Z" fill="white"/>
<path d="M366.477 19.0293H389.227V22.9293H370.377V26.1493H388.627V30.0193H370.377V33.2393H389.227V37.1393H366.477V19.0393V19.0293Z" fill="white"/>
<path d="M75.82 6.71L59.01 53.06C58.29 55.04 56.41 56.35 54.31 56.35H10.01C3.07003 56.35 -1.75997 49.45 0.610033 42.92L13.87 6.57C15.31 2.63 19.06 0 23.26 0H71.12C74.59 0 77 3.44 75.82 6.71Z" fill="white"/>
<path d="M134.52 0H90.2998C88.1998 0 86.3198 1.31 85.5998 3.29L56.1598 84.23C55.1298 87.08 58.4898 89.49 60.8598 87.59L99.7398 56.35H121.33C125.54 56.35 129.3 53.72 130.73 49.76L143.92 13.41C146.29 6.89 141.46 0 134.52 0Z" fill="white"/>
</g>
<defs>
<clipPath id="clip0_6328_22707">
<rect width="389.23" height="88.27" fill="white"/>
</clipPath>
</defs>
</svg>
